<svg version="1.1" id="Layer_1" xmlns="http://www.w3.org/2000/svg" xmlns:xlink="http://www.w3.org/1999/xlink" x="0px" y="0px"
	 width="100%" viewBox="0 0 639 531" enable-background="new 0 0 639 531" xml:space="preserve">
<path fill="#364F6B" opacity="1.000000" stroke="none" 
	d="
M99.000000,1.000000 
	C279.285797,1.000000 459.571625,1.000000 639.928711,1.000000 
	C639.928711,177.905792 639.928711,354.811646 639.928711,532.000000 
	C459.975189,532.000000 279.950226,532.000000 99.462761,531.531372 
	C99.000160,354.375122 99.000084,177.687561 99.000000,1.000000 
M379.359650,130.040024 
	C379.300629,125.012184 379.241608,119.984344 379.362213,114.105171 
	C379.385071,111.614784 379.577148,109.112595 379.404327,106.635864 
	C377.891907,84.962547 360.287872,75.919945 346.647919,77.145767 
	C343.189728,77.456558 338.878906,79.031250 336.484222,77.554047 
	C333.820282,75.910736 332.889893,71.448494 331.224213,68.203438 
	C330.922638,67.615913 330.750458,66.962730 330.458557,66.369354 
	C322.207855,49.596031 309.341492,42.218754 291.231628,44.284874 
	C286.159515,46.249321 281.087402,48.213768 275.384521,50.381695 
	C270.930725,55.264290 266.476898,60.146885 261.561340,65.547607 
	C257.199585,73.164192 256.174957,81.431808 256.611633,90.938133 
	C256.675537,98.959045 256.739441,106.979965 256.636139,115.925591 
	C256.698273,123.939789 256.760437,131.953995 256.640442,140.894409 
	C256.700897,147.597015 256.761322,154.299606 256.644867,161.923859 
	C256.708008,168.639618 256.771149,175.355377 256.653259,182.982834 
	C256.709778,192.478394 256.766266,201.973953 256.641510,212.466370 
	C256.706757,217.669922 256.771973,222.873474 256.653107,228.987473 
	C256.705566,242.008484 256.758026,255.029495 256.624359,268.946899 
	C256.750366,274.298340 256.876373,279.649780 256.901764,285.883087 
	C256.620026,309.073059 280.819550,329.517395 305.800323,324.106415 
	C311.532776,321.402832 317.265198,318.699249 323.629486,315.763580 
	C329.638000,311.156891 333.645203,305.151184 336.453583,297.401794 
	C337.247406,289.270599 338.041229,281.139435 338.950867,272.075897 
	C338.911774,264.055084 338.872681,256.034271 338.948914,247.079880 
	C338.911926,239.392731 338.874969,231.705597 338.950867,223.084763 
	C338.912628,215.393051 338.874390,207.701355 338.944122,199.076553 
	C338.910492,190.391602 338.876862,181.706635 338.955322,172.086380 
	C338.921753,163.723541 338.888184,155.360703 338.956116,146.251938 
	C339.058075,144.712036 339.160034,143.172134 339.261993,141.632233 
	C339.525116,141.576523 339.788239,141.520828 340.051361,141.465134 
	C341.496979,144.653519 342.942596,147.841904 344.548157,151.822083 
	C348.282379,161.229202 352.016602,170.636307 355.861572,180.810303 
	C359.739319,188.148407 358.784027,196.164993 359.000061,204.931534 
	C359.037384,211.286255 359.074707,217.640961 358.993500,224.925690 
	C359.033264,230.624298 359.072998,236.322922 358.998444,242.950150 
	C359.037170,252.301178 359.075867,261.652191 358.997467,271.921844 
	C359.033356,274.744659 358.893158,277.582550 359.133087,280.387909 
	C361.012970,302.367981 383.889038,314.936523 403.243225,304.152527 
	C406.637970,301.777039 407.723083,304.452789 409.200775,306.732086 
	C419.042542,321.912567 436.524078,327.869904 451.776337,321.082794 
	C459.666962,319.382111 464.987946,313.939392 470.778412,307.971100 
	C476.113251,301.617889 479.020386,294.286987 479.831970,285.106110 
	C479.839600,277.069611 479.847260,269.033142 479.957275,260.064667 
	C479.921509,252.038879 479.885712,244.013092 479.951416,235.056366 
	C479.915619,225.367752 479.879852,215.679138 479.945740,205.059204 
	C479.909698,194.703903 479.873657,184.348602 479.940094,173.061676 
	C479.906219,164.375992 479.872314,155.690292 479.946869,146.071548 
	C479.912018,138.384323 479.877167,130.697098 479.946991,122.076408 
	C479.964722,109.440559 480.104736,96.803421 479.972168,84.169144 
	C479.760773,64.021492 468.298218,48.686787 449.655426,43.297634 
	C430.187805,37.670055 406.691956,49.120060 400.598877,67.614380 
	C396.861328,76.806320 397.606934,86.413780 397.813904,96.915276 
	C397.865021,104.930794 397.916138,112.946312 397.808716,121.895981 
	C397.855469,129.259491 397.902222,136.623016 397.798615,144.916595 
	C397.848816,152.275085 397.898987,159.633575 397.804169,167.921097 
	C397.853851,175.607147 397.903503,183.293198 397.806274,191.911163 
	C397.856201,199.271652 397.906158,206.632156 397.812256,214.909042 
	C397.812256,218.914429 397.812256,222.919815 397.812256,226.925186 
	C397.347473,226.957901 396.882721,226.990616 396.417938,227.023315 
	C392.686920,217.989410 388.955872,208.955490 385.119781,199.164459 
	C382.002258,191.363617 378.513458,183.653427 379.382050,174.019623 
	C379.320099,169.685883 379.258118,165.352142 379.369354,160.099579 
	C379.309052,155.745438 379.248779,151.391296 379.368683,146.112686 
	C379.307648,141.059326 379.246613,136.005981 379.359650,130.040024 
M366.690948,406.008850 
	C371.449951,406.849335 373.974091,404.921753 375.128265,400.144409 
	C376.225525,395.602570 378.131989,391.256256 379.682617,386.823975 
	C380.087585,386.923370 380.492523,387.022766 380.897491,387.122162 
	C380.897491,390.084747 380.897186,393.047333 380.897552,396.009918 
	C380.898834,407.238861 381.020966,407.339355 392.858368,405.425781 
	C392.858368,391.277344 392.858368,377.056610 392.858368,362.146210 
	C389.705444,362.146210 386.892029,362.388611 384.137329,362.089630 
	C379.965179,361.636780 377.493439,363.135834 376.562134,367.299774 
	C376.202209,368.908936 375.423889,370.425781 374.823090,371.979614 
	C372.758789,377.318756 370.688690,382.655670 368.620789,387.993439 
	C368.113708,387.991852 367.606659,387.990295 367.099579,387.988708 
	C364.889801,382.337006 362.760437,376.652222 360.452789,371.040771 
	C356.216248,360.738892 359.303223,362.312561 346.981476,362.153259 
	C346.648346,362.148956 346.313507,362.185272 345.982056,362.163422 
	C343.213287,361.980652 342.113800,363.298615 342.127350,366.033020 
	C342.187653,378.196747 342.189728,390.361053 342.136780,402.524811 
	C342.125519,405.106079 343.235321,406.153625 345.747742,406.012207 
	C347.242462,405.928101 348.761871,405.865570 350.242706,406.034424 
	C353.866364,406.447632 354.889038,404.674072 354.769592,401.359741 
	C354.606293,396.828186 354.728821,392.286316 354.728821,387.748871 
	C355.214996,387.676117 355.701172,387.603394 356.187347,387.530640 
	C357.841187,392.336212 359.243896,397.252014 361.279999,401.889709 
	C362.029968,403.598022 364.274414,404.650177 366.690948,406.008850 
M400.325623,369.112366 
	C397.321808,377.796265 399.676971,383.312988 407.974213,386.788635 
	C411.039154,388.072540 414.370789,388.844604 417.205200,390.495117 
	C418.412109,391.197937 418.655640,393.555176 419.336945,395.160614 
	C417.426178,395.313263 414.208099,396.197662 413.817352,395.499542 
	C411.330475,391.056305 407.350525,392.180176 403.700134,392.183685 
	C398.932434,392.188263 398.172791,393.532410 400.171661,397.932007 
	C402.921478,403.984467 410.762421,407.382690 419.473999,406.297485 
	C426.996094,405.360474 432.019592,401.161285 432.948517,395.033966 
	C433.958252,388.373657 431.017670,384.173218 423.076416,380.897186 
	C420.162415,379.695038 417.109955,378.712433 414.436493,377.104523 
	C413.465820,376.520752 413.415497,374.406708 412.945251,372.990845 
	C414.574341,372.835876 417.001831,371.917419 417.702515,372.650177 
	C422.154388,377.306000 427.181946,374.352448 432.014221,374.950165 
	C431.719879,368.379761 428.897614,364.502594 422.835724,362.774139 
	C415.507141,360.684540 404.846832,361.222839 400.325623,369.112366 
M321.358765,378.141144 
	C321.358765,376.256378 321.358765,374.371613 321.358765,371.998413 
	C326.435028,371.998413 331.042572,371.998413 335.507294,371.998413 
	C337.794434,363.615601 336.780853,362.153107 329.135132,362.146790 
	C323.643158,362.142242 318.148468,362.259430 312.660217,362.118652 
	C309.393829,362.034912 308.229553,363.467010 308.248657,366.593170 
	C308.320801,378.408783 308.328491,390.225342 308.250397,402.040863 
	C308.230438,405.061768 309.463776,406.117462 312.434479,406.048401 
	C318.755096,405.901337 325.092285,405.786591 331.401855,406.090485 
	C335.392487,406.282654 336.948303,404.815735 336.475372,400.981018 
	C336.281952,399.412598 335.999268,397.855225 335.710419,395.990967 
	C331.599457,395.990967 327.949554,395.909943 324.305237,396.017975 
	C321.647644,396.096771 320.361176,394.708038 321.051544,392.406738 
	C321.488251,390.951080 322.977203,389.408051 324.387268,388.761871 
	C325.772247,388.127228 327.658752,388.484924 329.316925,388.569427 
	C332.950043,388.754639 334.809143,387.552094 334.826477,383.462616 
	C334.843781,379.383850 332.826813,378.814026 329.526764,378.975494 
	C327.050537,379.096680 324.554260,378.807831 321.358765,378.141144 
z"/>
<path fill="#000000" opacity="1.000000" stroke="none" 
	d="
M98.531342,1.000000 
	C99.000084,177.687561 99.000160,354.375122 99.000122,531.531372 
	C66.360573,532.000000 33.721138,532.000000 1.000000,532.000000 
	C1.000000,389.979126 1.000000,247.958221 1.349668,105.352203 
	C3.513524,104.674767 5.333266,104.623207 7.126731,104.378807 
	C7.224158,104.365532 7.261146,102.022987 7.056710,101.977554 
	C5.366731,101.601952 3.611768,101.524376 1.880001,101.325836 
	C1.578183,101.291237 1.292913,101.112282 1.000000,101.000000 
	C1.000000,67.740471 1.000000,34.480942 1.000000,1.000000 
	C33.353889,1.000000 65.708290,1.000000 98.531342,1.000000 
z"/>
<path fill="#364F6C" opacity="1.000000" stroke="none" 
	d="
M1.000000,101.399994 
	C1.292913,101.112282 1.578183,101.291237 1.880001,101.325836 
	C3.611768,101.524376 5.366731,101.601952 7.056710,101.977554 
	C7.261146,102.022987 7.224158,104.365532 7.126731,104.378807 
	C5.333266,104.623207 3.513524,104.674767 1.349668,104.883545 
	C1.000000,103.933327 1.000000,102.866661 1.000000,101.399994 
z"/>
<path fill="#1958FE" opacity="1.000000" stroke="none" 
	d="
M401.007477,67.004791 
	C406.691956,49.120060 430.187805,37.670055 449.655426,43.297634 
	C468.298218,48.686787 479.760773,64.021492 479.972168,84.169144 
	C480.104736,96.803421 479.964722,109.440559 479.546631,122.471893 
	C475.460846,120.443428 471.831848,117.927147 468.071106,115.626244 
	C465.308960,113.936295 462.374176,112.528473 459.455627,110.529831 
	C459.298431,100.287056 459.509705,90.493942 459.020233,80.735985 
	C458.515137,70.666542 450.061646,63.130226 439.498108,62.381886 
	C430.863220,61.770184 419.773102,69.335419 418.271179,77.944717 
	C416.151093,77.073219 414.228363,76.471169 412.630707,75.389099 
	C408.677063,72.711349 404.872162,69.813934 401.007477,67.004791 
z"/>
<path fill="#3FBEC7" opacity="1.000000" stroke="none" 
	d="
M366.264099,406.005249 
	C364.274414,404.650177 362.029968,403.598022 361.279999,401.889709 
	C359.243896,397.252014 357.841187,392.336212 356.187347,387.530640 
	C355.701172,387.603394 355.214996,387.676117 354.728821,387.748871 
	C354.728821,392.286316 354.606293,396.828186 354.769592,401.359741 
	C354.889038,404.674072 353.866364,406.447632 350.242706,406.034424 
	C348.761871,405.865570 347.242462,405.928101 345.747742,406.012207 
	C343.235321,406.153625 342.125519,405.106079 342.136780,402.524811 
	C342.189728,390.361053 342.187653,378.196747 342.127350,366.033020 
	C342.113800,363.298615 343.213287,361.980652 345.982056,362.163422 
	C346.313507,362.185272 346.648346,362.148956 346.981476,362.153259 
	C359.303223,362.312561 356.216248,360.738892 360.452789,371.040771 
	C362.760437,376.652222 364.889801,382.337006 367.099579,387.988708 
	C367.606659,387.990295 368.113708,387.991852 368.620789,387.993439 
	C370.688690,382.655670 372.758789,377.318756 374.823090,371.979614 
	C375.423889,370.425781 376.202209,368.908936 376.562134,367.299774 
	C377.493439,363.135834 379.965179,361.636780 384.137329,362.089630 
	C386.892029,362.388611 389.705444,362.146210 392.858368,362.146210 
	C392.858368,377.056610 392.858368,391.277344 392.858368,405.425781 
	C381.020966,407.339355 380.898834,407.238861 380.897552,396.009918 
	C380.897186,393.047333 380.897491,390.084747 380.897491,387.122162 
	C380.492523,387.022766 380.087585,386.923370 379.682617,386.823975 
	C378.131989,391.256256 376.225525,395.602570 375.128265,400.144409 
	C373.974091,404.921753 371.449951,406.849335 366.264099,406.005249 
z"/>
<path fill="#8655E4" opacity="1.000000" stroke="none" 
	d="
M451.006805,321.051727 
	C436.524078,327.869904 419.042542,321.912567 409.200775,306.732086 
	C407.723083,304.452789 406.637970,301.777039 402.602020,304.011658 
	C395.304565,298.410889 388.787231,292.769501 381.954712,287.539856 
	C374.493408,281.828949 366.740417,276.499176 359.114594,271.003235 
	C359.075867,261.652191 359.037170,252.301178 359.397461,242.564423 
	C362.188324,243.614243 364.645111,244.953171 366.957794,246.506592 
	C371.075623,249.272522 375.106293,252.168243 379.256348,255.471008 
	C379.384613,258.086487 379.414307,260.241058 379.478210,262.394623 
	C379.650177,268.187805 379.243622,274.089233 380.276947,279.725830 
	C380.766418,282.395813 383.595490,285.565491 386.151031,286.642334 
	C388.302887,287.549011 392.024078,286.433838 394.277649,284.999390 
	C397.696289,282.823395 394.980743,279.674561 394.243591,276.956696 
	C394.071045,276.320465 393.770447,275.718903 393.904907,275.165314 
	C396.847076,276.675323 399.620270,277.849884 401.939728,279.619202 
	C408.524475,284.642181 414.840027,290.019318 421.449463,295.008118 
	C423.338104,296.433655 425.867126,297.010742 428.378265,298.134857 
	C429.763306,299.291626 430.872589,300.290436 432.070862,301.614929 
	C434.229248,304.219574 436.213257,306.583862 438.386353,308.759247 
	C442.536255,312.913605 446.793884,316.960358 451.006805,321.051727 
z"/>
<path fill="#3B57F5" opacity="1.000000" stroke="none" 
	d="
M292.007385,44.312759 
	C309.341492,42.218754 322.207855,49.596031 330.458557,66.369354 
	C330.750458,66.962730 330.922638,67.615913 331.224213,68.203438 
	C332.889893,71.448494 333.820282,75.910736 336.484222,77.554047 
	C338.878906,79.031250 343.189728,77.456558 346.647919,77.145767 
	C360.287872,75.919945 377.891907,84.962547 379.404327,106.635864 
	C379.577148,109.112595 379.385071,111.614784 378.984009,114.437096 
	C375.904327,112.864990 373.269867,110.855843 370.486481,109.080223 
	C365.649261,105.994400 360.720032,103.052849 355.641113,99.993973 
	C355.204437,99.828766 355.007782,99.660057 354.754547,99.088493 
	C353.022949,96.701485 351.708984,94.274025 349.727234,92.673409 
	C334.644867,80.491714 319.346069,68.577065 304.312805,56.335949 
	C299.884064,52.729752 296.091492,48.342220 292.007385,44.312759 
z"/>
<path fill="#6956EC" opacity="1.000000" stroke="none" 
	d="
M385.224854,199.921570 
	C388.955872,208.955490 392.686920,217.989410 396.417938,227.023315 
	C396.882721,226.990616 397.347473,226.957901 397.812256,226.925186 
	C397.812256,222.919815 397.812256,218.914429 398.200500,214.586060 
	C401.157928,216.082855 403.673950,217.984268 406.309021,219.703079 
	C410.144684,222.205002 414.066071,224.575439 418.014191,227.466721 
	C418.032990,234.620132 417.988525,241.308777 417.590088,247.927948 
	C415.339478,246.895493 413.212494,246.221436 411.583252,244.922867 
	C400.437286,236.039139 389.477234,226.921112 378.288483,218.092484 
	C372.065918,213.182465 365.518219,208.684433 359.117065,204.000717 
	C358.784027,196.164993 359.739319,188.148407 356.157654,180.526703 
	C361.406494,183.754639 366.316254,187.329010 371.324768,190.759186 
	C375.902588,193.894394 380.587280,196.873611 385.224854,199.921570 
z"/>
<path fill="#7A56E6" opacity="1.000000" stroke="none" 
	d="
M379.173401,255.009674 
	C375.106293,252.168243 371.075623,249.272522 366.957794,246.506592 
	C364.645111,244.953171 362.188324,243.614243 359.454590,242.100113 
	C359.072998,236.322922 359.033264,230.624298 359.390991,224.545288 
	C361.521057,225.111084 363.433502,225.830566 364.957428,227.039703 
	C376.120148,235.896774 387.120361,244.960312 398.347351,253.734100 
	C404.710815,258.707092 411.405914,263.255676 418.017120,268.454102 
	C417.252899,276.915405 419.125214,284.207214 423.701813,290.843018 
	C425.286072,293.140045 426.642181,295.594391 428.102509,297.976898 
	C425.867126,297.010742 423.338104,296.433655 421.449463,295.008118 
	C414.840027,290.019318 408.524475,284.642181 401.939728,279.619202 
	C399.620270,277.849884 396.847076,276.675323 393.728027,274.876099 
	C389.000580,264.319366 384.826202,254.115768 380.651825,243.912186 
	C380.339142,244.011307 380.026459,244.110443 379.713776,244.209564 
	C379.533661,247.809601 379.353516,251.409637 379.173401,255.009674 
z"/>
<path fill="#7056EB" opacity="1.000000" stroke="none" 
	d="
M417.951660,267.995392 
	C411.405914,263.255676 404.710815,258.707092 398.347351,253.734100 
	C387.120361,244.960312 376.120148,235.896774 364.957428,227.039703 
	C363.433502,225.830566 361.521057,225.111084 359.450256,224.080292 
	C359.074707,217.640961 359.037384,211.286255 359.058563,204.466125 
	C365.518219,208.684433 372.065918,213.182465 378.288483,218.092484 
	C389.477234,226.921112 400.437286,236.039139 411.583252,244.922867 
	C413.212494,246.221436 415.339478,246.895493 417.654846,248.392944 
	C418.032928,255.283371 417.992279,261.639374 417.951660,267.995392 
z"/>
<path fill="#3FBEC7" opacity="1.000000" stroke="none" 
	d="
M400.520874,368.783478 
	C404.846832,361.222839 415.507141,360.684540 422.835724,362.774139 
	C428.897614,364.502594 431.719879,368.379761 432.014221,374.950165 
	C427.181946,374.352448 422.154388,377.306000 417.702515,372.650177 
	C417.001831,371.917419 414.574341,372.835876 412.945251,372.990845 
	C413.415497,374.406708 413.465820,376.520752 414.436493,377.104523 
	C417.109955,378.712433 420.162415,379.695038 423.076416,380.897186 
	C431.017670,384.173218 433.958252,388.373657 432.948517,395.033966 
	C432.019592,401.161285 426.996094,405.360474 419.473999,406.297485 
	C410.762421,407.382690 402.921478,403.984467 400.171661,397.932007 
	C398.172791,393.532410 398.932434,392.188263 403.700134,392.183685 
	C407.350525,392.180176 411.330475,391.056305 413.817352,395.499542 
	C414.208099,396.197662 417.426178,395.313263 419.336945,395.160614 
	C418.655640,393.555176 418.412109,391.197937 417.205200,390.495117 
	C414.370789,388.844604 411.039154,388.072540 407.974213,386.788635 
	C399.676971,383.312988 397.321808,377.796265 400.520874,368.783478 
z"/>
<path fill="#4257F5" opacity="1.000000" stroke="none" 
	d="
M291.619507,44.298817 
	C296.091492,48.342220 299.884064,52.729752 304.312805,56.335949 
	C319.346069,68.577065 334.644867,80.491714 349.727234,92.673409 
	C351.708984,94.274025 353.022949,96.701485 354.380066,98.946198 
	C351.637665,98.670570 349.161377,98.194733 345.919800,97.571838 
	C346.870758,101.058929 347.515900,103.424606 347.876617,105.846786 
	C345.328522,104.696869 342.902191,103.718918 340.830048,102.243523 
	C332.877777,96.581451 325.039124,90.759827 316.963165,84.703598 
	C315.017883,81.193024 313.367889,77.916924 311.498444,74.771225 
	C305.667175,64.958900 302.358063,63.442627 290.890228,64.857086 
	C288.999512,62.825531 287.271576,61.091465 285.517975,59.383732 
	C282.358521,56.306904 279.183685,53.245853 276.015289,50.178215 
	C281.087402,48.213768 286.159515,46.249321 291.619507,44.298817 
z"/>
<path fill="#3FBEC7" opacity="1.000000" stroke="none" 
	d="
M321.712830,378.421326 
	C324.554260,378.807831 327.050537,379.096680 329.526764,378.975494 
	C332.826813,378.814026 334.843781,379.383850 334.826477,383.462616 
	C334.809143,387.552094 332.950043,388.754639 329.316925,388.569427 
	C327.658752,388.484924 325.772247,388.127228 324.387268,388.761871 
	C322.977203,389.408051 321.488251,390.951080 321.051544,392.406738 
	C320.361176,394.708038 321.647644,396.096771 324.305237,396.017975 
	C327.949554,395.909943 331.599457,395.990967 335.710419,395.990967 
	C335.999268,397.855225 336.281952,399.412598 336.475372,400.981018 
	C336.948303,404.815735 335.392487,406.282654 331.401855,406.090485 
	C325.092285,405.786591 318.755096,405.901337 312.434479,406.048401 
	C309.463776,406.117462 308.230438,405.061768 308.250397,402.040863 
	C308.328491,390.225342 308.320801,378.408783 308.248657,366.593170 
	C308.229553,363.467010 309.393829,362.034912 312.660217,362.118652 
	C318.148468,362.259430 323.643158,362.142242 329.135132,362.146790 
	C336.780853,362.153107 337.794434,363.615601 335.507294,371.998413 
	C331.042572,371.998413 326.435028,371.998413 321.358765,371.998413 
	C321.358765,374.371613 321.358765,376.256378 321.712830,378.421326 
z"/>
<path fill="#5556EC" opacity="1.000000" stroke="none" 
	d="
M344.388245,151.030304 
	C342.942596,147.841904 341.496979,144.653519 340.051361,141.465134 
	C339.788239,141.520828 339.525116,141.576523 339.261993,141.632233 
	C339.160034,143.172134 339.058075,144.712036 338.594574,146.493515 
	C335.947998,145.140366 333.713745,143.466049 331.366852,141.968262 
	C327.116943,139.255951 322.799835,136.648865 318.445679,133.533951 
	C318.424652,127.378250 318.468750,121.686440 318.848145,116.046570 
	C321.044067,117.128464 323.093201,117.920959 324.736115,119.225174 
	C340.762360,131.947556 356.693146,144.790283 372.735168,157.492630 
	C374.630859,158.993668 377.030273,159.858597 379.196167,161.018402 
	C379.258118,165.352142 379.320099,169.685883 379.000610,174.368774 
	C373.187866,170.756744 367.832794,166.685257 362.304474,162.864471 
	C356.417847,158.796097 350.367249,154.964996 344.388245,151.030304 
z"/>
<path fill="#B254DA" opacity="1.000000" stroke="none" 
	d="
M322.997650,315.995667 
	C317.265198,318.699249 311.532776,321.402832 305.267029,323.763336 
	C303.590668,322.031189 302.633392,320.417999 301.273376,319.290649 
	C294.268646,313.484375 287.260162,307.673798 280.061218,302.112946 
	C272.487854,296.262878 264.697784,290.693329 257.002380,285.001221 
	C256.876373,279.649780 256.750366,274.298340 257.021942,268.574615 
	C259.829773,269.635651 262.305695,270.970428 264.635773,272.524017 
	C268.767090,275.278534 272.809845,278.165894 276.951660,281.418213 
	C278.267548,300.271729 290.676758,308.350128 308.175659,302.290588 
	C313.233856,307.045654 318.115753,311.520660 322.997650,315.995667 
z"/>
<path fill="#A755DD" opacity="1.000000" stroke="none" 
	d="
M276.889648,280.997681 
	C272.809845,278.165894 268.767090,275.278534 264.635773,272.524017 
	C262.305695,270.970428 259.829773,269.635651 257.114990,268.126404 
	C256.758026,255.029495 256.705566,242.008484 257.058807,228.580719 
	C260.694550,230.165390 263.918518,232.166763 267.156342,234.145508 
	C270.388153,236.120575 273.633820,238.073013 276.933716,240.496918 
	C276.959259,254.304855 276.924469,267.651276 276.889648,280.997681 
z"/>
<path fill="#5057F0" opacity="1.000000" stroke="none" 
	d="
M379.282776,160.558990 
	C377.030273,159.858597 374.630859,158.993668 372.735168,157.492630 
	C356.693146,144.790283 340.762360,131.947556 324.736115,119.225174 
	C323.093201,117.920959 321.044067,117.128464 318.786804,115.603348 
	C318.629639,111.072319 318.869080,107.036446 319.451111,103.081528 
	C325.203278,106.947998 330.626465,110.714218 336.019073,114.523750 
	C343.296936,119.665100 350.551239,124.839775 357.904724,130.199646 
	C357.993805,130.399155 358.046600,130.832916 358.236084,131.114349 
	C365.346527,136.609589 372.267517,141.823380 379.188507,147.037155 
	C379.248779,151.391296 379.309052,155.745438 379.282776,160.558990 
z"/>
<path fill="#9055E3" opacity="1.000000" stroke="none" 
	d="
M359.056030,271.462524 
	C366.740417,276.499176 374.493408,281.828949 381.954712,287.539856 
	C388.787231,292.769501 395.304565,298.410889 402.271118,304.087494 
	C383.889038,314.936523 361.012970,302.367981 359.133087,280.387909 
	C358.893158,277.582550 359.033356,274.744659 359.056030,271.462524 
z"/>
<path fill="#B954D8" opacity="1.000000" stroke="none" 
	d="
M256.952087,285.442139 
	C264.697784,290.693329 272.487854,296.262878 280.061218,302.112946 
	C287.260162,307.673798 294.268646,313.484375 301.273376,319.290649 
	C302.633392,320.417999 303.590668,322.031189 304.868713,323.734070 
	C280.819550,329.517395 256.620026,309.073059 256.952087,285.442139 
z"/>
<path fill="#5D56ED" opacity="1.000000" stroke="none" 
	d="
M344.468201,151.426193 
	C350.367249,154.964996 356.417847,158.796097 362.304474,162.864471 
	C367.832794,166.685257 373.187866,170.756744 378.909912,174.820740 
	C378.513458,183.653427 382.002258,191.363617 385.172302,199.543015 
	C380.587280,196.873611 375.902588,193.894394 371.324768,190.759186 
	C366.316254,187.329010 361.406494,183.754639 356.102264,180.143265 
	C352.016602,170.636307 348.282379,161.229202 344.468201,151.426193 
z"/>
<path fill="#3B57F5" opacity="1.000000" stroke="none" 
	d="
M479.837616,173.993301 
	C479.873657,184.348602 479.909698,194.703903 479.555206,205.444122 
	C475.469086,203.408493 471.829620,200.895920 468.059265,198.598007 
	C465.299530,196.916046 462.367859,195.516159 459.453247,193.525757 
	C459.434143,182.370834 459.474609,171.680695 459.840088,161.066376 
	C463.564575,163.406494 466.949158,165.693573 470.367889,167.928391 
	C473.505310,169.979340 476.679596,171.973907 479.837616,173.993301 
z"/>
<path fill="#4A57F1" opacity="1.000000" stroke="none" 
	d="
M459.512817,193.990555 
	C462.367859,195.516159 465.299530,196.916046 468.059265,198.598007 
	C471.829620,200.895920 475.469086,203.408493 479.504364,205.909790 
	C479.879852,215.679138 479.915619,225.367752 479.578491,235.410187 
	C475.849274,233.408554 472.553741,230.959702 469.118744,228.725250 
	C465.994995,226.693283 462.719696,224.894302 459.449188,222.528000 
	C459.429047,212.705780 459.470917,203.348175 459.512817,193.990555 
z"/>
<path fill="#2758FA" opacity="1.000000" stroke="none" 
	d="
M400.803162,67.309586 
	C404.872162,69.813934 408.677063,72.711349 412.630707,75.389099 
	C414.228363,76.471169 416.151093,77.073219 418.257935,78.361572 
	C418.373596,88.549484 418.157227,98.269524 417.599182,107.906448 
	C413.795593,105.582283 410.370331,103.281845 406.860504,101.118607 
	C403.948425,99.323799 400.936829,97.690536 397.969299,95.985718 
	C397.606934,86.413780 396.861328,76.806320 400.803162,67.309586 
z"/>
<path fill="#2E57FA" opacity="1.000000" stroke="none" 
	d="
M479.888855,173.527496 
	C476.679596,171.973907 473.505310,169.979340 470.367889,167.928391 
	C466.949158,165.693573 463.564575,163.406494 459.783020,160.601257 
	C459.439453,151.373474 459.477936,142.686615 459.841400,134.077057 
	C463.328339,136.168320 466.509460,138.152969 469.647095,140.204163 
	C473.065247,142.438797 476.443054,144.735168 479.838440,147.004608 
	C479.872314,155.690292 479.906219,164.375992 479.888855,173.527496 
z"/>
<path fill="#7056EB" opacity="1.000000" stroke="none" 
	d="
M338.843201,173.021683 
	C338.876862,181.706635 338.910492,190.391602 338.556641,199.456451 
	C336.224487,198.647018 334.243591,197.512543 332.342255,196.257477 
	C327.713837,193.202286 323.122375,190.091125 318.453827,186.537323 
	C318.431793,177.385010 318.471954,168.697906 318.836060,160.088715 
	C321.257629,161.413193 323.410492,162.576492 325.441650,163.923386 
	C329.941284,166.907227 334.379791,169.983246 338.843201,173.021683 
z"/>
<path fill="#6056E9" opacity="1.000000" stroke="none" 
	d="
M338.899292,172.554031 
	C334.379791,169.983246 329.941284,166.907227 325.441650,163.923386 
	C323.410492,162.576492 321.257629,161.413193 318.768127,159.623718 
	C318.421143,150.719849 318.465973,142.358841 318.510803,133.997849 
	C322.799835,136.648865 327.116943,139.255951 331.366852,141.968262 
	C333.713745,143.466049 335.947998,145.140366 338.543823,146.866486 
	C338.888184,155.360703 338.921753,163.723541 338.899292,172.554031 
z"/>
<path fill="#9B55E0" opacity="1.000000" stroke="none" 
	d="
M338.835022,273.008240 
	C338.041229,281.139435 337.247406,289.270599 335.910004,297.597107 
	C333.007355,296.268555 330.664795,294.718323 328.285278,293.227051 
	C324.940430,291.130798 321.568207,289.078278 318.185913,286.538513 
	C318.282013,277.714844 318.399811,269.359772 318.857544,261.056488 
	C322.948029,263.408783 326.690521,265.722504 330.451752,268.005371 
	C333.233551,269.693787 336.039734,271.342072 338.835022,273.008240 
z"/>
<path fill="#6056E9" opacity="1.000000" stroke="none" 
	d="
M479.854919,260.996643 
	C479.847260,269.033142 479.839600,277.069611 479.391968,285.488983 
	C476.845978,284.675232 474.650818,283.610046 472.652100,282.255127 
	C468.219788,279.250519 463.886078,276.100525 459.444489,272.544861 
	C459.421356,263.718964 459.465912,255.357971 459.820862,247.089691 
	C461.643921,248.153870 463.197357,249.067825 464.661774,250.107193 
	C469.742859,253.713470 474.792969,257.363342 479.854919,260.996643 
z"/>
<path fill="#6056E9" opacity="1.000000" stroke="none" 
	d="
M256.803345,115.000870 
	C256.739441,106.979965 256.675537,98.959045 257.025879,90.522751 
	C259.712646,91.312820 262.119995,92.321259 264.229492,93.764999 
	C268.539825,96.715065 272.690002,99.899231 276.962402,103.454269 
	C276.976440,111.948143 276.934235,119.974739 276.565491,127.887192 
	C273.465210,125.986855 270.676605,124.223160 267.921295,122.408936 
	C264.201904,119.959923 260.508118,117.472061 256.803345,115.000870 
z"/>
<path fill="#9055E3" opacity="1.000000" stroke="none" 
	d="
M338.892944,272.542053 
	C336.039734,271.342072 333.233551,269.693787 330.451752,268.005371 
	C326.690521,265.722504 322.948029,263.408783 318.790222,260.591919 
	C318.427521,252.052704 318.472015,244.029892 318.856293,236.059265 
	C321.761414,237.517578 324.388275,238.823517 326.878082,240.352631 
	C330.910583,242.829178 334.853119,245.452240 338.833618,248.013458 
	C338.872681,256.034271 338.911774,264.055084 338.892944,272.542053 
z"/>
<path fill="#5556EC" opacity="1.000000" stroke="none" 
	d="
M479.906067,260.530640 
	C474.792969,257.363342 469.742859,253.713470 464.661774,250.107193 
	C463.197357,249.067825 461.643921,248.153870 459.756104,246.625153 
	C459.424316,238.376144 459.467743,230.684372 459.511169,222.992615 
	C462.719696,224.894302 465.994995,226.693283 469.118744,228.725250 
	C472.553741,230.959702 475.849274,233.408554 479.527771,235.875641 
	C479.885712,244.013092 479.921509,252.038879 479.906067,260.530640 
z"/>
<path fill="#7056EB" opacity="1.000000" stroke="none" 
	d="
M256.719727,115.463226 
	C260.508118,117.472061 264.201904,119.959923 267.921295,122.408936 
	C270.676605,124.223160 273.465210,125.986855 276.619354,128.353363 
	C276.961456,136.623993 276.923157,144.314301 276.542175,151.923004 
	C272.714050,149.628586 269.253021,147.376175 265.735809,145.215134 
	C262.798859,143.410614 259.796143,141.713089 256.822571,139.968185 
	C256.760437,131.953995 256.698273,123.939789 256.719727,115.463226 
z"/>
<path fill="#7A56E6" opacity="1.000000" stroke="none" 
	d="
M318.515991,187.002518 
	C323.122375,190.091125 327.713837,193.202286 332.342255,196.257477 
	C334.243591,197.512543 336.224487,198.647018 338.502686,199.923004 
	C338.874390,207.701355 338.912628,215.393051 338.559357,223.464050 
	C334.739746,221.606781 331.366760,219.279083 327.866852,217.161209 
	C324.824219,215.320053 321.638062,213.716141 318.448914,211.542480 
	C318.427002,203.052567 318.471497,195.027542 318.515991,187.002518 
z"/>
<path fill="#2E57FA" opacity="1.000000" stroke="none" 
	d="
M397.891602,96.450493 
	C400.936829,97.690536 403.948425,99.323799 406.860504,101.118607 
	C410.370331,103.281845 413.795593,105.582283 417.666962,108.372124 
	C418.031067,117.268410 417.985687,125.615898 417.623962,133.834808 
	C414.953369,132.187683 412.584961,130.690613 410.248047,129.145905 
	C406.144257,126.433266 402.059814,123.691429 397.967255,120.961830 
	C397.916138,112.946312 397.865021,104.930794 397.891602,96.450493 
z"/>
<path fill="#5556EC" opacity="1.000000" stroke="none" 
	d="
M276.906128,102.986977 
	C272.690002,99.899231 268.539825,96.715065 264.229492,93.764999 
	C262.119995,92.321259 259.712646,91.312820 257.113708,90.063072 
	C256.174957,81.431808 257.199585,73.164192 262.002869,65.543915 
	C267.784760,69.405380 273.125092,73.270546 278.382050,77.558701 
	C277.834473,86.316788 277.370300,94.651878 276.906128,102.986977 
z"/>
<path fill="#8655E4" opacity="1.000000" stroke="none" 
	d="
M318.515320,212.007385 
	C321.638062,213.716141 324.824219,215.320053 327.866852,217.161209 
	C331.366760,219.279083 334.739746,221.606781 338.502930,223.930893 
	C338.874969,231.705597 338.911926,239.392731 338.891266,247.546661 
	C334.853119,245.452240 330.910583,242.829178 326.878082,240.352631 
	C324.388275,238.823517 321.761414,237.517578 318.789551,235.594482 
	C318.427124,227.387466 318.471222,219.697418 318.515320,212.007385 
z"/>
<path fill="#7056EB" opacity="1.000000" stroke="none" 
	d="
M459.512177,273.009766 
	C463.886078,276.100525 468.219788,279.250519 472.652100,282.255127 
	C474.650818,283.610046 476.845978,284.675232 479.284058,285.948578 
	C479.020386,294.286987 476.113251,301.617889 470.263794,307.919067 
	C464.710693,303.869690 459.672211,299.872345 454.790527,295.548096 
	C460.403229,288.625946 458.989990,280.618958 459.512177,273.009766 
z"/>
<path fill="#2758FA" opacity="1.000000" stroke="none" 
	d="
M479.892639,146.538086 
	C476.443054,144.735168 473.065247,142.438797 469.647095,140.204163 
	C466.509460,138.152969 463.328339,136.168320 459.778748,133.612030 
	C459.432861,125.711456 459.474609,118.353188 459.516327,110.994926 
	C462.374176,112.528473 465.308960,113.936295 468.071106,115.626244 
	C471.831848,117.927147 475.460846,120.443428 479.494324,122.938629 
	C479.877167,130.697098 479.912018,138.384323 479.892639,146.538086 
z"/>
<path fill="#5057F0" opacity="1.000000" stroke="none" 
	d="
M397.953156,190.979248 
	C397.903503,183.293198 397.853851,175.607147 398.215088,167.566360 
	C401.033997,168.629135 403.518829,169.932495 405.833160,171.489258 
	C409.928802,174.244232 413.920746,177.153351 418.019531,180.463196 
	C418.039368,188.613998 417.995728,196.299515 417.621094,203.874512 
	C414.644806,202.103714 411.962402,200.499207 409.362915,198.770065 
	C405.528717,196.219666 401.753479,193.580566 397.953156,190.979248 
z"/>
<path fill="#7A56E6" opacity="1.000000" stroke="none" 
	d="
M454.633728,295.875000 
	C459.672211,299.872345 464.710693,303.869690 469.996338,308.134247 
	C464.987946,313.939392 459.666962,319.382111 451.391571,321.067261 
	C446.793884,316.960358 442.536255,312.913605 438.386353,308.759247 
	C436.213257,306.583862 434.229248,304.219574 432.427490,301.730347 
	C441.360199,304.893372 448.284668,301.502289 454.633728,295.875000 
z"/>
<path fill="#9055E3" opacity="1.000000" stroke="none" 
	d="
M256.822784,211.469513 
	C256.766266,201.973953 256.709778,192.478394 257.045349,182.601959 
	C260.359406,184.082611 263.305939,185.906967 266.197144,187.815094 
	C269.780670,190.180130 273.318359,192.614594 276.934448,195.482529 
	C276.953583,202.972153 276.914093,209.998306 276.532593,216.942322 
	C272.123810,214.077316 268.012573,211.356842 264.001160,208.496384 
	C258.550629,204.609726 257.652283,204.948074 256.822784,211.469513 
z"/>
<path fill="#9B55E0" opacity="1.000000" stroke="none" 
	d="
M256.732147,211.967941 
	C257.652283,204.948074 258.550629,204.609726 264.001160,208.496384 
	C268.012573,211.356842 272.123810,214.077316 276.592896,217.404999 
	C276.954590,225.311661 276.914001,232.673523 276.873413,240.035385 
	C273.633820,238.073013 270.388153,236.120575 267.156342,234.145508 
	C263.918518,232.166763 260.694550,230.165390 257.150879,228.125488 
	C256.771973,222.873474 256.706757,217.669922 256.732147,211.967941 
z"/>
<path fill="#5D56ED" opacity="1.000000" stroke="none" 
	d="
M397.879700,191.445206 
	C401.753479,193.580566 405.528717,196.219666 409.362915,198.770065 
	C411.962402,200.499207 414.644806,202.103714 417.685120,204.341171 
	C418.037048,212.279572 417.993988,219.640747 417.950928,227.001938 
	C414.066071,224.575439 410.144684,222.205002 406.309021,219.703079 
	C403.673950,217.984268 401.157928,216.082855 398.272400,214.127853 
	C397.906158,206.632156 397.856201,199.271652 397.879700,191.445206 
z"/>
<path fill="#3B57F5" opacity="1.000000" stroke="none" 
	d="
M397.888000,121.428909 
	C402.059814,123.691429 406.144257,126.433266 410.248047,129.145905 
	C412.584961,130.690613 414.953369,132.187683 417.693085,134.303223 
	C418.037964,142.264587 417.997375,149.628937 417.626770,156.882568 
	C414.660736,155.084137 412.002136,153.430420 409.394073,151.700607 
	C405.560120,149.157761 401.762238,146.560577 397.948975,143.986526 
	C397.902222,136.623016 397.855469,129.259491 397.888000,121.428909 
z"/>
<path fill="#4A57F1" opacity="1.000000" stroke="none" 
	d="
M397.873779,144.451569 
	C401.762238,146.560577 405.560120,149.157761 409.394073,151.700607 
	C412.002136,153.430420 414.660736,155.084137 417.692352,157.348053 
	C418.044006,165.282135 418.000031,172.640045 417.956055,179.997955 
	C413.920746,177.153351 409.928802,174.244232 405.833160,171.489258 
	C403.518829,169.932495 401.033997,168.629135 398.287567,167.101837 
	C397.898987,159.633575 397.848816,152.275085 397.873779,144.451569 
z"/>
<path fill="#7A56E6" opacity="1.000000" stroke="none" 
	d="
M256.731506,140.431305 
	C259.796143,141.713089 262.798859,143.410614 265.735809,145.215134 
	C269.253021,147.376175 272.714050,149.628586 276.601105,152.387909 
	C276.963837,159.962708 276.924896,166.991013 276.571838,173.886917 
	C273.358582,171.837952 270.465118,169.912796 267.558929,168.007034 
	C263.985413,165.663651 260.401306,163.336426 256.821777,161.002228 
	C256.761322,154.299606 256.700897,147.597015 256.731506,140.431305 
z"/>
<path fill="#8655E4" opacity="1.000000" stroke="none" 
	d="
M256.733337,161.463043 
	C260.401306,163.336426 263.985413,165.663651 267.558929,168.007034 
	C270.465118,169.912796 273.358582,171.837952 276.628967,174.350464 
	C276.958801,181.637283 276.917328,188.328171 276.875854,195.019058 
	C273.318359,192.614594 269.780670,190.180130 266.197144,187.815094 
	C263.305939,185.906967 260.359406,184.082611 257.135864,182.146118 
	C256.771149,175.355377 256.708008,168.639618 256.733337,161.463043 
z"/>
<path fill="#A755DD" opacity="1.000000" stroke="none" 
	d="
M318.207672,287.007080 
	C321.568207,289.078278 324.940430,291.130798 328.285278,293.227051 
	C330.664795,294.718323 333.007355,296.268555 335.701233,297.904022 
	C333.645203,305.151184 329.638000,311.156891 323.313568,315.879639 
	C318.115753,311.520660 313.233856,307.045654 308.391663,302.034363 
	C313.954651,298.195465 316.474976,292.866943 318.207672,287.007080 
z"/>
<path fill="#4A57F1" opacity="1.000000" stroke="none" 
	d="
M278.465454,77.135712 
	C273.125092,73.270546 267.784760,69.405380 262.233765,65.284851 
	C266.476898,60.146885 270.930725,55.264290 275.699890,50.279953 
	C279.183685,53.245853 282.358521,56.306904 285.517975,59.383732 
	C287.271576,61.091465 288.999512,62.825531 290.618835,65.054901 
	C285.133820,68.012413 280.774109,71.507835 278.465454,77.135712 
z"/>
<path fill="#4257F5" opacity="1.000000" stroke="none" 
	d="
M355.829376,100.050812 
	C360.720032,103.052849 365.649261,105.994400 370.486481,109.080223 
	C373.269867,110.855843 375.904327,112.864990 378.894226,114.862762 
	C379.241608,119.984344 379.300629,125.012184 378.954529,130.447815 
	C376.153656,129.532043 373.641785,128.379410 371.387299,126.847916 
	C367.216064,124.014297 363.195496,120.958878 359.056213,117.535416 
	C358.644562,111.269638 360.117279,105.123741 355.829376,100.050812 
z"/>
<path fill="#4A57F1" opacity="1.000000" stroke="none" 
	d="
M359.112183,117.995857 
	C363.195496,120.958878 367.216064,124.014297 371.387299,126.847916 
	C373.641785,128.379410 376.153656,129.532043 378.867493,130.904114 
	C379.246613,136.005981 379.307648,141.059326 379.278595,146.574921 
	C372.267517,141.823380 365.346527,136.609589 358.483337,130.796875 
	C358.731476,126.130600 358.921844,122.063225 359.112183,117.995857 
z"/>
<path fill="#364F6C" opacity="1.000000" stroke="none" 
	d="
M418.019531,180.463211 
	C418.000031,172.640045 418.044006,165.282135 418.022400,157.458755 
	C417.997375,149.628937 418.037964,142.264587 418.009430,134.431824 
	C417.985687,125.615898 418.031067,117.268410 418.008667,108.455231 
	C418.157227,98.269524 418.373596,88.549484 418.603210,78.412598 
	C419.773102,69.335419 430.863220,61.770184 439.498108,62.381886 
	C450.061646,63.130226 458.515137,70.666542 459.020233,80.735985 
	C459.509705,90.493942 459.298431,100.287056 459.455627,110.529831 
	C459.474609,118.353188 459.432861,125.711456 459.453766,133.534729 
	C459.477936,142.686615 459.439453,151.373474 459.458008,160.525452 
	C459.474609,171.680695 459.434143,182.370834 459.453247,193.525757 
	C459.470917,203.348175 459.429047,212.705780 459.449158,222.528015 
	C459.467743,230.684372 459.424316,238.376144 459.445648,246.532440 
	C459.465912,255.357971 459.421356,263.718964 459.444489,272.544861 
	C458.989990,280.618958 460.403229,288.625946 454.790527,295.548096 
	C448.284668,301.502289 441.360199,304.893372 432.338501,301.404663 
	C430.872589,300.290436 429.763306,299.291626 428.378265,298.134857 
	C426.642181,295.594391 425.286072,293.140045 423.701813,290.843018 
	C419.125214,284.207214 417.252899,276.915405 418.017120,268.454102 
	C417.992279,261.639374 418.032928,255.283371 418.008820,248.462387 
	C417.988525,241.308777 418.032990,234.620132 418.014191,227.466721 
	C417.993988,219.640747 418.037048,212.279572 418.016083,204.451721 
	C417.995728,196.299515 418.039368,188.613998 418.019531,180.463211 
z"/>
<path fill="#364F6C" opacity="1.000000" stroke="none" 
	d="
M379.256348,255.471008 
	C379.353516,251.409637 379.533661,247.809601 379.713776,244.209564 
	C380.026459,244.110443 380.339142,244.011307 380.651825,243.912186 
	C384.826202,254.115768 389.000580,264.319366 393.351837,274.812195 
	C393.770447,275.718903 394.071045,276.320465 394.243591,276.956696 
	C394.980743,279.674561 397.696289,282.823395 394.277649,284.999390 
	C392.024078,286.433838 388.302887,287.549011 386.151031,286.642334 
	C383.595490,285.565491 380.766418,282.395813 380.276947,279.725830 
	C379.243622,274.089233 379.650177,268.187805 379.478210,262.394623 
	C379.414307,260.241058 379.384613,258.086487 379.256348,255.471008 
z"/>
<path fill="#364F6C" opacity="1.000000" stroke="none" 
	d="
M359.056213,117.535416 
	C358.921844,122.063225 358.731476,126.130600 358.293854,130.515442 
	C358.046600,130.832916 357.993805,130.399155 357.829590,129.851318 
	C354.497284,121.465752 351.329163,113.628014 348.161041,105.790276 
	C347.515900,103.424606 346.870758,101.058929 345.919800,97.571838 
	C349.161377,98.194733 351.637665,98.670570 354.488403,99.288704 
	C355.007782,99.660057 355.204437,99.828766 355.641113,99.993973 
	C360.117279,105.123741 358.644562,111.269638 359.056213,117.535416 
z"/>
<path fill="#364F6C" opacity="1.000000" stroke="none" 
	d="
M278.382050,77.558701 
	C280.774109,71.507835 285.133820,68.012413 290.770050,65.364258 
	C302.358063,63.442627 305.667175,64.958900 311.498444,74.771225 
	C313.367889,77.916924 315.017883,81.193024 317.034821,85.053558 
	C321.441711,91.095787 320.732941,97.000366 319.108521,103.000572 
	C318.869080,107.036446 318.629639,111.072319 318.451538,115.551414 
	C318.468750,121.686440 318.424652,127.378250 318.445679,133.533951 
	C318.465973,142.358841 318.421143,150.719849 318.444214,159.545822 
	C318.471954,168.697906 318.431793,177.385010 318.453796,186.537323 
	C318.471497,195.027542 318.427002,203.052567 318.448914,211.542480 
	C318.471222,219.697418 318.427124,227.387466 318.449768,235.542282 
	C318.472015,244.029892 318.427521,252.052704 318.450317,260.540100 
	C318.399811,269.359772 318.282013,277.714844 318.185913,286.538513 
	C316.474976,292.866943 313.954651,298.195465 308.215393,301.754272 
	C290.676758,308.350128 278.267548,300.271729 276.951660,281.418213 
	C276.924469,267.651276 276.959259,254.304855 276.933716,240.496918 
	C276.914001,232.673523 276.954590,225.311661 276.934906,217.487122 
	C276.914093,209.998306 276.953583,202.972153 276.934448,195.482529 
	C276.917328,188.328171 276.958801,181.637283 276.943115,174.482849 
	C276.924896,166.991013 276.963837,159.962708 276.943848,152.469513 
	C276.923157,144.314301 276.961456,136.623993 276.945862,128.467499 
	C276.934235,119.974739 276.976440,111.948143 276.962402,103.454269 
	C277.370300,94.651878 277.834473,86.316788 278.382050,77.558701 
z"/>
<path fill="#4A57F1" opacity="1.000000" stroke="none" 
	d="
M319.451111,103.081528 
	C320.732941,97.000366 321.441711,91.095787 317.229736,85.347694 
	C325.039124,90.759827 332.877777,96.581451 340.830048,102.243523 
	C342.902191,103.718918 345.328522,104.696869 347.876617,105.846786 
	C351.329163,113.628014 354.497284,121.465752 357.740540,129.651825 
	C350.551239,124.839775 343.296936,119.665100 336.019073,114.523750 
	C330.626465,110.714218 325.203278,106.947998 319.451111,103.081528 
z"/>
</svg>